<svg width="1172" height="448" viewBox="0 0 1172 448" fill="none" xmlns="http://www.w3.org/2000/svg">
<path d="M304.932 250.375L304.813 218.49L204.846 218.863L205.22 318.829L236.244 318.713L235.989 250.633L304.932 250.375Z" fill="#A7D5FF" fill-opacity="0.5"/>
<path d="M98.2475 248.713L98.2044 280.599L198.171 280.734L198.307 180.767L167.282 180.725L167.19 248.806L98.2475 248.713Z" fill="#A7D5FF" fill-opacity="0.5"/>
<path d="M243.28 179.396L243.237 211.282L343.204 211.417L343.34 111.45L312.315 111.408L312.223 179.489L243.28 179.396Z" fill="#A7D5FF" fill-opacity="0.5"/>
<path d="M339.634 218.863C339.929 218.29 340.525 217.897 341.215 217.894C342.2 217.891 343.002 218.687 343.006 219.672C343.008 220.362 342.62 220.961 342.049 221.261C342.622 221.556 343.015 222.152 343.018 222.841C343.02 223.531 342.632 224.13 342.061 224.43C342.634 224.725 343.027 225.321 343.03 226.011C343.032 226.7 342.644 227.299 342.073 227.599C342.646 227.894 343.039 228.49 343.041 229.18C343.044 229.869 342.656 230.468 342.085 230.768C342.658 231.063 343.051 231.659 343.053 232.349C343.056 233.038 342.667 233.637 342.096 233.937C342.67 234.232 343.062 234.829 343.065 235.518C343.068 236.207 342.679 236.806 342.108 237.106C342.681 237.401 343.074 237.998 343.077 238.687C343.079 239.376 342.691 239.975 342.12 240.275C342.693 240.57 343.086 241.167 343.089 241.856C343.091 242.545 342.703 243.145 342.132 243.444C342.705 243.739 343.098 244.336 343.101 245.025C343.103 245.714 342.715 246.314 342.144 246.613C342.717 246.908 343.11 247.505 343.112 248.194C343.116 249.18 342.32 249.982 341.334 249.985C340.645 249.988 340.046 249.6 339.746 249.029C339.451 249.602 338.854 249.995 338.165 249.997C337.476 250 336.877 249.611 336.577 249.041C336.282 249.614 335.685 250.007 334.996 250.009C334.307 250.012 333.708 249.623 333.408 249.052C333.113 249.625 332.516 250.018 331.827 250.021C331.138 250.023 330.539 249.635 330.239 249.064C329.944 249.637 329.347 250.03 328.658 250.033C327.969 250.035 327.369 249.647 327.07 249.076C326.775 249.649 326.178 250.042 325.489 250.045C324.8 250.047 324.2 249.659 323.901 249.088C323.606 249.661 323.009 250.054 322.32 250.056C321.631 250.059 321.031 249.671 320.732 249.1C320.437 249.673 319.84 250.066 319.151 250.068C318.462 250.071 317.862 249.682 317.563 249.112C317.267 249.685 316.671 250.078 315.982 250.08C315.293 250.083 314.693 249.694 314.394 249.123C314.098 249.696 313.502 250.089 312.813 250.092C311.827 250.096 311.025 249.3 311.021 248.314C311.019 247.625 311.407 247.025 311.978 246.726C311.405 246.431 311.012 245.834 311.009 245.145C311.007 244.456 311.395 243.856 311.966 243.557C311.393 243.261 311 242.665 310.998 241.976C310.995 241.287 311.384 240.687 311.954 240.388C311.381 240.092 310.988 239.496 310.986 238.807C310.983 238.117 311.372 237.518 311.943 237.219C311.369 236.923 310.977 236.327 310.974 235.638C310.971 234.948 311.36 234.349 311.931 234.049C311.358 233.754 310.965 233.158 310.962 232.469C310.96 231.779 311.348 231.18 311.919 230.88C311.346 230.585 310.953 229.989 310.95 229.299C310.948 228.61 311.336 228.011 311.907 227.711C311.334 227.416 310.941 226.82 310.938 226.13C310.936 225.441 311.324 224.842 311.895 224.542C311.322 224.247 310.929 223.651 310.927 222.961C310.924 222.272 311.313 221.673 311.883 221.373C311.31 221.078 310.917 220.481 310.915 219.792C310.911 218.807 311.707 218.005 312.693 218.001C313.382 217.998 313.982 218.387 314.281 218.958C314.576 218.384 315.173 217.992 315.862 217.989C316.551 217.986 317.151 218.375 317.45 218.946C317.745 218.373 318.342 217.98 319.031 217.977C319.72 217.975 320.32 218.363 320.619 218.934C320.914 218.361 321.511 217.968 322.2 217.965C322.889 217.963 323.489 218.351 323.788 218.922C324.083 218.349 324.68 217.956 325.369 217.954C326.058 217.951 326.658 218.339 326.957 218.91C327.252 218.337 327.849 217.944 328.538 217.942C329.227 217.939 329.827 218.328 330.126 218.898C330.422 218.325 331.018 217.932 331.707 217.93C332.397 217.927 332.996 218.316 333.295 218.887C333.591 218.313 334.187 217.921 334.876 217.918C335.566 217.915 336.165 218.304 336.465 218.875C336.76 218.302 337.356 217.909 338.045 217.906C338.735 217.904 339.334 218.292 339.634 218.863Z" fill="#A7D5FF"/>
<path d="M301.25 141.578C301.545 141.005 302.142 140.612 302.831 140.609C303.817 140.606 304.619 141.402 304.623 142.387C304.625 143.077 304.237 143.676 303.666 143.976C304.239 144.271 304.632 144.867 304.634 145.556C304.637 146.246 304.249 146.845 303.678 147.145C304.251 147.44 304.644 148.036 304.646 148.726C304.649 149.415 304.26 150.014 303.69 150.314C304.263 150.609 304.656 151.205 304.658 151.895C304.661 152.584 304.272 153.183 303.701 153.483C304.274 153.778 304.667 154.374 304.67 155.064C304.672 155.753 304.284 156.352 303.713 156.652C304.286 156.947 304.679 157.544 304.682 158.233C304.684 158.922 304.296 159.521 303.725 159.821C304.298 160.116 304.691 160.713 304.694 161.402C304.696 162.091 304.308 162.69 303.737 162.99C304.31 163.285 304.703 163.882 304.705 164.571C304.708 165.26 304.32 165.86 303.749 166.159C304.322 166.454 304.715 167.051 304.717 167.74C304.72 168.429 304.331 169.029 303.761 169.328C304.334 169.623 304.727 170.22 304.729 170.909C304.733 171.895 303.937 172.697 302.951 172.7C302.262 172.703 301.662 172.315 301.363 171.744C301.068 172.317 300.471 172.71 299.782 172.712C299.093 172.715 298.493 172.326 298.194 171.756C297.899 172.329 297.302 172.722 296.613 172.724C295.924 172.727 295.324 172.338 295.025 171.767C294.73 172.34 294.133 172.733 293.444 172.736C292.755 172.739 292.155 172.35 291.856 171.779C291.56 172.352 290.964 172.745 290.275 172.748C289.586 172.75 288.986 172.362 288.687 171.791C288.391 172.364 287.795 172.757 287.106 172.76C286.416 172.762 285.817 172.374 285.518 171.803C285.222 172.376 284.626 172.769 283.937 172.771C283.247 172.774 282.648 172.386 282.348 171.815C282.053 172.388 281.457 172.781 280.768 172.783C280.078 172.786 279.479 172.397 279.179 171.827C278.884 172.4 278.288 172.793 277.598 172.795C276.909 172.798 276.31 172.409 276.01 171.838C275.715 172.411 275.119 172.804 274.429 172.807C273.444 172.811 272.642 172.015 272.638 171.029C272.635 170.34 273.024 169.74 273.595 169.441C273.022 169.146 272.629 168.549 272.626 167.86C272.624 167.171 273.012 166.571 273.583 166.272C273.01 165.976 272.617 165.38 272.614 164.691C272.612 164.002 273 163.402 273.571 163.103C272.998 162.807 272.605 162.211 272.603 161.522C272.6 160.832 272.988 160.233 273.559 159.934C272.986 159.638 272.593 159.042 272.591 158.353C272.588 157.663 272.977 157.064 273.547 156.764C272.974 156.469 272.581 155.873 272.579 155.184C272.576 154.494 272.965 153.895 273.536 153.595C272.962 153.3 272.57 152.704 272.567 152.014C272.564 151.325 272.953 150.726 273.524 150.426C272.951 150.131 272.558 149.535 272.555 148.845C272.553 148.156 272.941 147.557 273.512 147.257C272.939 146.962 272.546 146.366 272.543 145.676C272.541 144.987 272.929 144.388 273.5 144.088C272.927 143.793 272.534 143.196 272.531 142.507C272.528 141.522 273.324 140.72 274.31 140.716C274.999 140.713 275.598 141.102 275.898 141.673C276.193 141.1 276.789 140.707 277.479 140.704C278.168 140.701 278.767 141.09 279.067 141.661C279.362 141.088 279.958 140.695 280.648 140.692C281.337 140.69 281.936 141.078 282.236 141.649C282.531 141.076 283.128 140.683 283.817 140.68C284.506 140.678 285.105 141.066 285.405 141.637C285.7 141.064 286.297 140.671 286.986 140.669C287.675 140.666 288.274 141.054 288.574 141.625C288.869 141.052 289.466 140.659 290.155 140.657C290.844 140.654 291.444 141.043 291.743 141.613C292.038 141.04 292.635 140.647 293.324 140.645C294.013 140.642 294.613 141.031 294.912 141.602C295.207 141.028 295.804 140.636 296.493 140.633C297.182 140.63 297.782 141.019 298.081 141.59C298.376 141.017 298.973 140.624 299.662 140.621C300.351 140.619 300.951 141.007 301.25 141.578Z" fill="#A7D5FF"/>
<path d="M149.947 189.275C150.424 188.35 151.386 187.716 152.499 187.711C154.089 187.706 155.384 188.99 155.39 190.581C155.394 191.693 154.767 192.661 153.846 193.144C154.771 193.621 155.405 194.583 155.409 195.696C155.413 196.808 154.786 197.775 153.865 198.259C154.79 198.735 155.424 199.698 155.428 200.81C155.432 201.922 154.805 202.89 153.884 203.373C154.809 203.85 155.443 204.812 155.447 205.925C155.451 207.037 154.824 208.004 153.903 208.488C154.828 208.964 155.462 209.927 155.466 211.039C155.47 212.152 154.843 213.119 153.922 213.602C154.847 214.079 155.481 215.042 155.485 216.154C155.489 217.266 154.862 218.234 153.941 218.717C154.866 219.193 155.5 220.156 155.504 221.268C155.508 222.381 154.882 223.348 153.96 223.831C154.885 224.308 155.519 225.271 155.523 226.383C155.528 227.495 154.901 228.463 153.979 228.946C154.904 229.422 155.538 230.385 155.543 231.497C155.547 232.61 154.92 233.577 153.998 234.061C154.923 234.537 155.557 235.5 155.562 236.612C155.568 238.203 154.283 239.497 152.692 239.503C151.58 239.507 150.612 238.88 150.129 237.959C149.652 238.884 148.69 239.518 147.577 239.522C146.465 239.526 145.498 238.9 145.014 237.978C144.538 238.903 143.575 239.537 142.463 239.541C141.351 239.546 140.383 238.919 139.9 237.997C139.423 238.922 138.461 239.556 137.348 239.56C136.236 239.565 135.269 238.938 134.785 238.016C134.309 238.941 133.346 239.575 132.234 239.58C131.121 239.584 130.154 238.957 129.671 238.036C129.194 238.96 128.232 239.595 127.119 239.599C126.007 239.603 125.04 238.976 124.556 238.055C124.08 238.98 123.117 239.614 122.005 239.618C120.892 239.622 119.925 238.995 119.442 238.074C118.965 238.999 118.002 239.633 116.89 239.637C115.778 239.641 114.81 239.014 114.327 238.093C113.851 239.018 112.888 239.652 111.776 239.656C110.663 239.66 109.696 239.033 109.213 238.112C108.736 239.037 107.773 239.671 106.661 239.675C105.07 239.681 103.776 238.396 103.77 236.805C103.766 235.693 104.393 234.726 105.314 234.242C104.389 233.766 103.755 232.803 103.751 231.691C103.747 230.579 104.374 229.611 105.295 229.128C104.37 228.651 103.736 227.689 103.732 226.576C103.728 225.464 104.354 224.497 105.276 224.013C104.351 223.537 103.717 222.574 103.713 221.462C103.708 220.349 104.335 219.382 105.257 218.899C104.332 218.422 103.698 217.46 103.694 216.347C103.689 215.235 104.316 214.268 105.238 213.784C104.313 213.308 103.679 212.345 103.674 211.233C103.67 210.12 104.297 209.153 105.218 208.67C104.294 208.193 103.659 207.23 103.655 206.118C103.651 205.006 104.278 204.038 105.199 203.555C104.274 203.079 103.64 202.116 103.636 201.004C103.632 199.891 104.259 198.924 105.18 198.441C104.255 197.964 103.621 197.001 103.617 195.889C103.613 194.777 104.24 193.809 105.161 193.326C104.236 192.85 103.602 191.887 103.598 190.774C103.592 189.184 104.877 187.889 106.468 187.883C107.58 187.879 108.547 188.506 109.031 189.427C109.507 188.503 110.47 187.868 111.582 187.864C112.694 187.86 113.662 188.487 114.145 189.408C114.622 188.483 115.584 187.849 116.697 187.845C117.809 187.841 118.776 188.468 119.26 189.389C119.736 188.464 120.699 187.83 121.811 187.826C122.924 187.822 123.891 188.449 124.374 189.37C124.851 188.445 125.814 187.811 126.926 187.807C128.038 187.803 129.006 188.43 129.489 189.351C129.965 188.426 130.928 187.792 132.04 187.788C133.153 187.784 134.12 188.411 134.603 189.332C135.08 188.407 136.043 187.773 137.155 187.769C138.267 187.765 139.235 188.392 139.718 189.313C140.194 188.388 141.157 187.754 142.269 187.75C143.382 187.746 144.349 188.372 144.833 189.294C145.309 188.369 146.272 187.735 147.384 187.731C148.496 187.726 149.464 188.353 149.947 189.275Z" fill="#A7D5FF"/>
<path d="M253.625 81.6996C254.465 80.0689 256.162 78.9509 258.123 78.9436C260.928 78.9331 263.21 81.1983 263.22 84.003C263.228 85.9641 262.123 87.6697 260.498 88.5219C262.129 89.3619 263.247 91.0592 263.254 93.0203C263.261 94.9814 262.156 96.687 260.532 97.5392C262.163 98.3792 263.28 100.077 263.288 102.038C263.295 103.999 262.19 105.704 260.566 106.557C262.196 107.397 263.314 109.094 263.321 111.055C263.329 113.016 262.224 114.722 260.599 115.574C262.23 116.414 263.348 118.111 263.355 120.072C263.362 122.033 262.257 123.739 260.633 124.591C262.264 125.431 263.382 127.129 263.389 129.09C263.396 131.051 262.291 132.756 260.667 133.609C262.297 134.449 263.415 136.146 263.423 138.107C263.43 140.068 262.325 141.774 260.7 142.626C262.331 143.466 263.449 145.163 263.456 147.124C263.464 149.086 262.358 150.791 260.734 151.643C262.365 152.483 263.483 154.181 263.49 156.142C263.497 158.103 262.392 159.809 260.768 160.661C262.398 161.501 263.516 163.198 263.524 165.159C263.534 167.964 261.269 170.246 258.464 170.256C256.503 170.264 254.797 169.158 253.945 167.534C253.105 169.165 251.408 170.283 249.447 170.29C247.486 170.297 245.78 169.192 244.928 167.568C244.088 169.198 242.391 170.316 240.429 170.324C238.468 170.331 236.763 169.226 235.911 167.601C235.071 169.232 233.373 170.35 231.412 170.357C229.451 170.365 227.745 169.26 226.893 167.635C226.053 169.266 224.356 170.384 222.395 170.391C220.434 170.398 218.728 169.293 217.876 167.669C217.036 169.299 215.339 170.417 213.377 170.425C211.416 170.432 209.711 169.327 208.859 167.702C208.018 169.333 206.321 170.451 204.36 170.458C202.399 170.466 200.693 169.361 199.841 167.736C199.001 169.367 197.304 170.485 195.343 170.492C193.382 170.499 191.676 169.394 190.824 167.77C189.984 169.401 188.286 170.518 186.325 170.526C184.364 170.533 182.659 169.428 181.806 167.804C180.966 169.434 179.269 170.552 177.308 170.559C174.503 170.57 172.221 168.305 172.211 165.5C172.203 163.539 173.309 161.833 174.933 160.981C173.302 160.141 172.184 158.444 172.177 156.483C172.17 154.522 173.275 152.816 174.899 151.964C173.269 151.124 172.151 149.427 172.143 147.465C172.136 145.504 173.241 143.799 174.866 142.947C173.235 142.107 172.117 140.409 172.11 138.448C172.102 136.487 173.208 134.781 174.832 133.929C173.201 133.089 172.083 131.392 172.076 129.431C172.069 127.47 173.174 125.764 174.798 124.912C173.168 124.072 172.05 122.374 172.042 120.413C172.035 118.452 173.14 116.747 174.765 115.894C173.134 115.054 172.016 113.357 172.009 111.396C172.001 109.435 173.107 107.729 174.731 106.877C173.1 106.037 171.982 104.34 171.975 102.379C171.968 100.418 173.073 98.7119 174.697 97.8598C173.067 97.0197 171.949 95.3224 171.941 93.3613C171.934 91.4002 173.039 89.6946 174.664 88.8424C173.033 88.0024 171.915 86.3051 171.908 84.3439C171.897 81.5393 174.162 79.2572 176.967 79.2467C178.928 79.2394 180.634 80.3446 181.486 81.969C182.326 80.3383 184.023 79.2203 185.984 79.213C187.945 79.2057 189.651 80.311 190.503 81.9353C191.343 80.3046 193.041 79.1867 195.002 79.1793C196.963 79.172 198.668 80.2773 199.521 81.9016C200.361 80.271 202.058 79.153 204.019 79.1457C205.98 79.1383 207.686 80.2436 208.538 81.868C209.378 80.2373 211.075 79.1193 213.036 79.112C214.998 79.1047 216.703 80.2099 217.555 81.8343C218.395 80.2036 220.093 79.0856 222.054 79.0783C224.015 79.071 225.72 80.1763 226.573 81.8006C227.413 80.1699 229.11 79.052 231.071 79.0446C233.032 79.0373 234.738 80.1426 235.59 81.7669C236.43 80.1363 238.127 79.0183 240.088 79.011C242.05 79.0036 243.755 80.1089 244.607 81.7333C245.447 80.1026 247.145 78.9846 249.106 78.9773C251.067 78.97 252.773 80.0752 253.625 81.6996Z" fill="#A7D5FF"/>
<path d="M394.329 114.054C394.779 113.18 395.688 112.581 396.739 112.577C398.242 112.572 399.465 113.785 399.47 115.288C399.474 116.339 398.882 117.253 398.012 117.71C398.885 118.16 399.485 119.069 399.488 120.12C399.492 121.171 398.9 122.085 398.03 122.541C398.903 122.992 399.503 123.901 399.506 124.952C399.51 126.003 398.918 126.917 398.048 127.373C398.922 127.823 399.521 128.733 399.525 129.784C399.528 130.834 398.936 131.748 398.066 132.205C398.94 132.655 399.539 133.565 399.543 134.615C399.546 135.666 398.954 136.58 398.084 137.037C398.958 137.487 399.557 138.396 399.561 139.447C399.565 140.498 398.972 141.412 398.102 141.869C398.976 142.319 399.575 143.228 399.579 144.279C399.583 145.33 398.99 146.244 398.12 146.7C398.994 147.151 399.593 148.06 399.597 149.111C399.601 150.162 399.008 151.076 398.138 151.532C399.012 151.982 399.611 152.892 399.615 153.943C399.619 154.993 399.026 155.907 398.156 156.364C399.03 156.814 399.629 157.724 399.633 158.774C399.638 160.277 398.425 161.5 396.922 161.506C395.871 161.51 394.957 160.917 394.5 160.047C394.05 160.921 393.141 161.52 392.09 161.524C391.039 161.528 390.125 160.935 389.669 160.065C389.219 160.939 388.309 161.538 387.258 161.542C386.207 161.546 385.293 160.954 384.837 160.083C384.387 160.957 383.477 161.556 382.426 161.56C381.376 161.564 380.462 160.972 380.005 160.101C379.555 160.975 378.645 161.574 377.595 161.578C376.544 161.582 375.63 160.99 375.173 160.119C374.723 160.993 373.814 161.592 372.763 161.596C371.712 161.6 370.798 161.008 370.341 160.137C369.891 161.011 368.982 161.61 367.931 161.614C366.88 161.618 365.966 161.026 365.51 160.155C365.06 161.029 364.15 161.628 363.099 161.632C362.048 161.636 361.134 161.044 360.678 160.173C360.228 161.047 359.318 161.646 358.267 161.65C357.217 161.654 356.303 161.062 355.846 160.191C355.396 161.065 354.486 161.664 353.436 161.668C351.933 161.674 350.71 160.46 350.704 158.957C350.7 157.906 351.293 156.992 352.163 156.536C351.289 156.086 350.69 155.176 350.686 154.125C350.682 153.075 351.275 152.161 352.145 151.704C351.271 151.254 350.672 150.344 350.668 149.294C350.664 148.243 351.257 147.329 352.127 146.872C351.253 146.422 350.654 145.513 350.65 144.462C350.646 143.411 351.239 142.497 352.109 142.04C351.235 141.59 350.636 140.681 350.632 139.63C350.628 138.579 351.22 137.665 352.091 137.209C351.217 136.758 350.618 135.849 350.614 134.798C350.61 133.747 351.202 132.833 352.073 132.377C351.199 131.927 350.6 131.017 350.596 129.966C350.592 128.916 351.184 128.002 352.055 127.545C351.181 127.095 350.582 126.185 350.578 125.135C350.574 124.084 351.166 123.17 352.037 122.713C351.163 122.263 350.564 121.354 350.56 120.303C350.556 119.252 351.148 118.338 352.019 117.881C351.145 117.431 350.546 116.522 350.542 115.471C350.536 113.968 351.75 112.745 353.253 112.74C354.304 112.736 355.218 113.328 355.674 114.198C356.124 113.325 357.034 112.726 358.085 112.722C359.136 112.718 360.049 113.31 360.506 114.18C360.956 113.307 361.866 112.708 362.917 112.704C363.967 112.7 364.881 113.292 365.338 114.162C365.788 113.289 366.697 112.689 367.748 112.686C368.799 112.682 369.713 113.274 370.17 114.144C370.62 113.27 371.529 112.671 372.58 112.668C373.631 112.664 374.545 113.256 375.001 114.126C375.452 113.252 376.361 112.653 377.412 112.649C378.463 112.646 379.377 113.238 379.833 114.108C380.283 113.234 381.193 112.635 382.244 112.631C383.295 112.628 384.208 113.22 384.665 114.09C385.115 113.216 386.025 112.617 387.076 112.613C388.126 112.609 389.04 113.202 389.497 114.072C389.947 113.198 390.856 112.599 391.907 112.595C392.958 112.591 393.872 113.184 394.329 114.054Z" fill="#A7D5FF"/>
<path d="M233.373 181.035C233.669 180.462 234.265 180.069 234.954 180.067C235.94 180.063 236.742 180.859 236.746 181.845C236.748 182.534 236.36 183.133 235.789 183.433C236.362 183.728 236.755 184.325 236.757 185.014C236.76 185.703 236.372 186.303 235.801 186.602C236.374 186.897 236.767 187.494 236.769 188.183C236.772 188.872 236.383 189.472 235.813 189.771C236.386 190.066 236.779 190.663 236.781 191.352C236.784 192.041 236.395 192.641 235.824 192.94C236.398 193.235 236.79 193.832 236.793 194.521C236.796 195.21 236.407 195.81 235.836 196.109C236.409 196.404 236.802 197.001 236.805 197.69C236.807 198.379 236.419 198.979 235.848 199.278C236.421 199.574 236.814 200.17 236.817 200.859C236.819 201.548 236.431 202.148 235.86 202.447C236.433 202.743 236.826 203.339 236.828 204.028C236.831 204.718 236.443 205.317 235.872 205.616C236.445 205.912 236.838 206.508 236.84 207.197C236.843 207.887 236.454 208.486 235.884 208.786C236.457 209.081 236.85 209.677 236.852 210.366C236.856 211.352 236.06 212.154 235.074 212.158C234.385 212.16 233.785 211.772 233.486 211.201C233.191 211.774 232.594 212.167 231.905 212.17C231.216 212.172 230.616 211.784 230.317 211.213C230.022 211.786 229.425 212.179 228.736 212.182C228.047 212.184 227.447 211.796 227.148 211.225C226.853 211.798 226.256 212.191 225.567 212.193C224.878 212.196 224.278 211.807 223.979 211.237C223.684 211.81 223.087 212.203 222.398 212.205C221.709 212.208 221.109 211.819 220.81 211.248C220.514 211.822 219.918 212.214 219.229 212.217C218.54 212.22 217.94 211.831 217.641 211.26C217.345 211.833 216.749 212.226 216.06 212.229C215.37 212.231 214.771 211.843 214.472 211.272C214.176 211.845 213.58 212.238 212.891 212.241C212.201 212.243 211.602 211.855 211.302 211.284C211.007 211.857 210.411 212.25 209.722 212.253C209.032 212.255 208.433 211.867 208.133 211.296C207.838 211.869 207.242 212.262 206.552 212.264C205.567 212.268 204.765 211.472 204.761 210.486C204.759 209.797 205.147 209.198 205.718 208.898C205.145 208.603 204.752 208.006 204.749 207.317C204.747 206.628 205.135 206.029 205.706 205.729C205.133 205.434 204.74 204.837 204.737 204.148C204.735 203.459 205.123 202.86 205.694 202.56C205.121 202.265 204.728 201.668 204.726 200.979C204.723 200.29 205.111 199.69 205.682 199.391C205.109 199.096 204.716 198.499 204.714 197.81C204.711 197.121 205.1 196.521 205.67 196.222C205.097 195.927 204.704 195.33 204.702 194.641C204.699 193.952 205.088 193.352 205.659 193.053C205.086 192.758 204.693 192.161 204.69 191.472C204.687 190.783 205.076 190.183 205.647 189.884C205.074 189.589 204.681 188.992 204.678 188.303C204.676 187.614 205.064 187.014 205.635 186.715C205.062 186.419 204.669 185.823 204.666 185.134C204.664 184.445 205.052 183.845 205.623 183.546C205.05 183.25 204.657 182.654 204.655 181.965C204.651 180.979 205.447 180.177 206.433 180.173C207.122 180.171 207.721 180.559 208.021 181.13C208.316 180.557 208.912 180.164 209.602 180.161C210.291 180.159 210.89 180.547 211.19 181.118C211.485 180.545 212.082 180.152 212.771 180.15C213.46 180.147 214.059 180.535 214.359 181.106C214.654 180.533 215.251 180.14 215.94 180.138C216.629 180.135 217.228 180.524 217.528 181.094C217.823 180.521 218.42 180.129 219.109 180.126C219.798 180.123 220.398 180.512 220.697 181.083C220.992 180.51 221.589 180.117 222.278 180.114C222.967 180.112 223.567 180.5 223.866 181.071C224.161 180.498 224.758 180.105 225.447 180.102C226.136 180.1 226.736 180.488 227.035 181.059C227.33 180.486 227.927 180.093 228.616 180.09C229.305 180.088 229.905 180.476 230.204 181.047C230.499 180.474 231.096 180.081 231.785 180.079C232.474 180.076 233.074 180.464 233.373 181.035Z" fill="#A7D5FF"/>
<path d="M274.412 257.462C274.757 256.793 275.453 256.335 276.258 256.332C277.409 256.327 278.345 257.257 278.349 258.407C278.352 259.212 277.899 259.912 277.232 260.261C277.901 260.606 278.36 261.302 278.363 262.107C278.366 262.911 277.912 263.611 277.246 263.961C277.915 264.306 278.374 265.002 278.377 265.806C278.38 266.611 277.926 267.311 277.26 267.66C277.929 268.005 278.388 268.702 278.391 269.506C278.394 270.311 277.94 271.01 277.274 271.36C277.943 271.705 278.401 272.401 278.404 273.206C278.407 274.01 277.954 274.71 277.288 275.06C277.957 275.404 278.415 276.101 278.418 276.905C278.421 277.71 277.968 278.41 277.301 278.759C277.97 279.104 278.429 279.8 278.432 280.605C278.435 281.41 277.982 282.109 277.315 282.459C277.984 282.804 278.443 283.5 278.446 284.305C278.449 285.109 277.995 285.809 277.329 286.159C277.998 286.503 278.457 287.2 278.46 288.004C278.463 288.809 278.009 289.509 277.343 289.858C278.012 290.203 278.47 290.899 278.473 291.704C278.478 292.854 277.548 293.791 276.398 293.795C275.593 293.798 274.893 293.345 274.544 292.678C274.199 293.347 273.503 293.806 272.698 293.809C271.894 293.812 271.194 293.358 270.844 292.692C270.5 293.361 269.803 293.82 268.999 293.823C268.194 293.826 267.494 293.372 267.145 292.706C266.8 293.375 266.104 293.833 265.299 293.836C264.494 293.839 263.795 293.386 263.445 292.72C263.1 293.389 262.404 293.847 261.599 293.85C260.795 293.853 260.095 293.4 259.745 292.733C259.401 293.402 258.704 293.861 257.9 293.864C257.095 293.867 256.395 293.414 256.046 292.747C255.701 293.416 255.005 293.875 254.2 293.878C253.396 293.881 252.696 293.427 252.346 292.761C252.001 293.43 251.305 293.889 250.5 293.892C249.696 293.895 248.996 293.441 248.646 292.775C248.302 293.444 247.605 293.903 246.801 293.906C245.996 293.909 245.297 293.455 244.947 292.789C244.602 293.458 243.906 293.916 243.101 293.919C241.951 293.924 241.014 292.994 241.01 291.844C241.007 291.039 241.46 290.339 242.127 289.99C241.458 289.645 240.999 288.949 240.996 288.144C240.993 287.339 241.447 286.64 242.113 286.29C241.444 285.945 240.985 285.249 240.982 284.444C240.979 283.64 241.433 282.94 242.099 282.59C241.43 282.246 240.972 281.549 240.969 280.745C240.966 279.94 241.419 279.24 242.085 278.891C241.416 278.546 240.958 277.85 240.955 277.045C240.952 276.241 241.405 275.541 242.072 275.191C241.403 274.847 240.944 274.15 240.941 273.346C240.938 272.541 241.391 271.841 242.058 271.492C241.389 271.147 240.93 270.451 240.927 269.646C240.924 268.841 241.378 268.142 242.044 267.792C241.375 267.447 240.916 266.751 240.913 265.946C240.91 265.142 241.364 264.442 242.03 264.092C241.361 263.748 240.902 263.051 240.899 262.247C240.896 261.442 241.35 260.742 242.016 260.393C241.347 260.048 240.889 259.352 240.886 258.547C240.881 257.396 241.811 256.46 242.961 256.456C243.766 256.453 244.466 256.906 244.815 257.573C245.16 256.904 245.856 256.445 246.661 256.442C247.466 256.439 248.165 256.893 248.515 257.559C248.86 256.89 249.556 256.431 250.361 256.428C251.165 256.425 251.865 256.879 252.215 257.545C252.559 256.876 253.256 256.417 254.06 256.414C254.865 256.411 255.565 256.865 255.914 257.531C256.259 256.862 256.955 256.404 257.76 256.401C258.564 256.398 259.264 256.851 259.614 257.518C259.958 256.848 260.655 256.39 261.459 256.387C262.264 256.384 262.964 256.837 263.313 257.504C263.658 256.835 264.354 256.376 265.159 256.373C265.964 256.37 266.663 256.823 267.013 257.49C267.358 256.821 268.054 256.362 268.859 256.359C269.663 256.356 270.363 256.81 270.713 257.476C271.057 256.807 271.754 256.348 272.558 256.345C273.363 256.342 274.063 256.796 274.412 257.462Z" fill="#A7D5FF"/>
<path d="M311.966 0H342.966V106H311.966V0Z" fill="#A7D5FF" fill-opacity="0.25"/>
<path d="M273.966 0H304.966V132H273.966V0Z" fill="#A7D5FF" fill-opacity="0.5"/>
<path d="M93.7989 249.58L93.7918 280.467L0 280.445L0.00701678 249.559L93.7989 249.58Z" fill="#A7D5FF" fill-opacity="0.5"/>
<path d="M236.678 446.43L205.792 446.485L205.572 323.164L236.459 323.109L236.678 446.43Z" fill="#A7D5FF" fill-opacity="0.25"/>
<path d="M757.852 123.321H726.966V0.000110626H757.852V123.321Z" fill="#A7D5FF" fill-opacity="0.25"/>
<path d="M823.346 61.6319C823.926 60.5062 825.098 59.7345 826.452 59.7294C828.388 59.7222 829.963 61.2858 829.97 63.2219C829.975 64.5756 829.212 65.753 828.091 66.3413C829.217 66.9212 829.988 68.0928 829.993 69.4466C829.998 70.8003 829.235 71.9777 828.114 72.566C829.24 73.1459 830.012 74.3175 830.017 75.6713C830.022 77.025 829.259 78.2024 828.137 78.7907C829.263 79.3706 830.035 80.5422 830.04 81.896C830.045 83.2497 829.282 84.4271 828.161 85.0154C829.286 85.5953 830.058 86.7669 830.063 88.1207C830.068 89.4744 829.305 90.6518 828.184 91.2401C829.31 91.82 830.081 92.9916 830.086 94.3454C830.091 95.6991 829.329 96.8765 828.207 97.4648C829.333 98.0447 830.105 99.2163 830.11 100.57C830.115 101.924 829.352 103.101 828.23 103.689C829.356 104.269 830.128 105.441 830.133 106.795C830.138 108.149 829.375 109.326 828.254 109.914C829.379 110.494 830.151 111.666 830.156 113.02C830.161 114.373 829.398 115.551 828.277 116.139C829.403 116.719 830.174 117.89 830.179 119.244C830.187 121.18 828.623 122.756 826.687 122.763C825.333 122.768 824.156 122.005 823.568 120.884C822.988 122.009 821.816 122.781 820.462 122.786C819.108 122.791 817.931 122.028 817.343 120.907C816.763 122.033 815.591 122.804 814.237 122.809C812.884 122.814 811.706 122.051 811.118 120.93C810.538 122.056 809.367 122.828 808.013 122.833C806.659 122.838 805.482 122.075 804.893 120.953C804.314 122.079 803.142 122.851 801.788 122.856C800.434 122.861 799.257 122.098 798.669 120.977C798.089 122.102 796.917 122.874 795.563 122.879C794.21 122.884 793.032 122.121 792.444 121C791.864 122.126 790.692 122.897 789.339 122.902C787.985 122.907 786.808 122.144 786.219 121.023C785.639 122.149 784.468 122.921 783.114 122.926C781.76 122.931 780.583 122.168 779.995 121.046C779.415 122.172 778.243 122.944 776.889 122.949C775.536 122.954 774.358 122.191 773.77 121.07C773.19 122.195 772.018 122.967 770.665 122.972C768.728 122.979 767.153 121.416 767.146 119.48C767.141 118.126 767.904 116.948 769.025 116.36C767.899 115.78 767.128 114.609 767.123 113.255C767.118 111.901 767.881 110.724 769.002 110.135C767.876 109.556 767.104 108.384 767.099 107.03C767.094 105.676 767.857 104.499 768.979 103.911C767.853 103.331 767.081 102.159 767.076 100.805C767.071 99.4517 767.834 98.2743 768.955 97.6861C767.83 97.1062 767.058 95.9345 767.053 94.5808C767.048 93.227 767.811 92.0496 768.932 91.4614C767.806 90.8815 767.035 89.7098 767.03 88.3561C767.025 87.0023 767.788 85.8249 768.909 85.2367C767.783 84.6568 767.012 83.4851 767.006 82.1314C767.001 80.7776 767.764 79.6002 768.886 79.012C767.76 78.4321 766.988 77.2604 766.983 75.9067C766.978 74.5529 767.741 73.3755 768.862 72.7873C767.737 72.2074 766.965 71.0357 766.96 69.682C766.955 68.3282 767.718 67.1508 768.839 66.5626C767.714 65.9827 766.942 64.811 766.937 63.4573C766.929 61.5212 768.493 59.9458 770.429 59.9386C771.783 59.9335 772.96 60.6965 773.549 61.8178C774.128 60.6922 775.3 59.9204 776.654 59.9154C778.008 59.9103 779.185 60.6733 779.773 61.7946C780.353 60.6689 781.525 59.8972 782.879 59.8921C784.232 59.8871 785.41 60.65 785.998 61.7713C786.578 60.6457 787.75 59.8739 789.103 59.8689C790.457 59.8638 791.634 60.6268 792.223 61.7481C792.803 60.6224 793.974 59.8507 795.328 59.8456C796.682 59.8406 797.859 60.6035 798.447 61.7248C799.027 60.5992 800.199 59.8274 801.553 59.8224C802.906 59.8173 804.084 60.5803 804.672 61.7016C805.252 60.5759 806.424 59.8042 807.777 59.7991C809.131 59.7941 810.309 60.557 810.897 61.6783C811.477 60.5527 812.648 59.7809 814.002 59.7759C815.356 59.7708 816.533 60.5338 817.122 61.6551C817.701 60.5294 818.873 59.7577 820.227 59.7526C821.581 59.7476 822.758 60.5106 823.346 61.6319Z" fill="#A7D5FF"/>
<path d="M857.966 132V163H725.966V132H857.966Z" fill="#A7D5FF" fill-opacity="0.5"/>
<path d="M907.047 183.967H938.933V84H838.966V115.024H907.047V183.967Z" fill="#A7D5FF" fill-opacity="0.5"/>
<path d="M895.691 132.975C895.986 132.402 896.583 132.009 897.272 132.007C898.258 132.003 899.06 132.799 899.063 133.785C899.066 134.474 898.677 135.073 898.107 135.373C898.68 135.668 899.073 136.265 899.075 136.954C899.078 137.643 898.689 138.242 898.118 138.542C898.692 138.837 899.084 139.434 899.087 140.123C899.09 140.812 898.701 141.412 898.13 141.711C898.703 142.006 899.096 142.603 899.099 143.292C899.101 143.981 898.713 144.581 898.142 144.88C898.715 145.175 899.108 145.772 899.111 146.461C899.113 147.15 898.725 147.75 898.154 148.049C898.727 148.344 899.12 148.941 899.123 149.63C899.125 150.319 898.737 150.919 898.166 151.218C898.739 151.513 899.132 152.11 899.134 152.799C899.137 153.488 898.748 154.088 898.178 154.387C898.751 154.682 899.144 155.279 899.146 155.968C899.149 156.657 898.76 157.257 898.189 157.556C898.763 157.852 899.155 158.448 899.158 159.137C899.161 159.826 898.772 160.426 898.201 160.725C898.774 161.021 899.167 161.617 899.17 162.306C899.174 163.292 898.377 164.094 897.392 164.098C896.703 164.1 896.103 163.712 895.804 163.141C895.508 163.714 894.912 164.107 894.223 164.11C893.534 164.112 892.934 163.724 892.635 163.153C892.339 163.726 891.743 164.119 891.054 164.121C890.364 164.124 889.765 163.736 889.466 163.165C889.17 163.738 888.574 164.131 887.885 164.133C887.195 164.136 886.596 163.747 886.296 163.177C886.001 163.75 885.405 164.143 884.716 164.145C884.026 164.148 883.427 163.759 883.127 163.188C882.832 163.761 882.236 164.154 881.546 164.157C880.857 164.159 880.258 163.771 879.958 163.2C879.663 163.773 879.067 164.166 878.377 164.169C877.688 164.171 877.089 163.783 876.789 163.212C876.494 163.785 875.898 164.178 875.208 164.181C874.519 164.183 873.92 163.795 873.62 163.224C873.325 163.797 872.728 164.19 872.039 164.192C871.35 164.195 870.751 163.807 870.451 163.236C870.156 163.809 869.559 164.202 868.87 164.204C867.885 164.208 867.082 163.412 867.079 162.426C867.076 161.737 867.465 161.138 868.036 160.838C867.462 160.543 867.07 159.946 867.067 159.257C867.064 158.568 867.453 157.968 868.024 157.669C867.451 157.374 867.058 156.777 867.055 156.088C867.053 155.399 867.441 154.799 868.012 154.5C867.439 154.205 867.046 153.608 867.043 152.919C867.041 152.23 867.429 151.63 868 151.331C867.427 151.036 867.034 150.439 867.031 149.75C867.029 149.061 867.417 148.461 867.988 148.162C867.415 147.867 867.022 147.27 867.02 146.581C867.017 145.892 867.406 145.292 867.976 144.993C867.403 144.697 867.01 144.101 867.008 143.412C867.005 142.723 867.394 142.123 867.965 141.824C867.391 141.528 866.999 140.932 866.996 140.243C866.993 139.553 867.382 138.954 867.953 138.655C867.38 138.359 866.987 137.763 866.984 137.074C866.982 136.384 867.37 135.785 867.941 135.486C867.368 135.19 866.975 134.594 866.972 133.905C866.969 132.919 867.765 132.117 868.75 132.113C869.44 132.111 870.039 132.499 870.339 133.07C870.634 132.497 871.23 132.104 871.919 132.101C872.609 132.099 873.208 132.487 873.508 133.058C873.803 132.485 874.399 132.092 875.089 132.09C875.778 132.087 876.377 132.475 876.677 133.046C876.972 132.473 877.568 132.08 878.258 132.078C878.947 132.075 879.546 132.464 879.846 133.034C880.141 132.461 880.737 132.068 881.427 132.066C882.116 132.063 882.715 132.452 883.015 133.023C883.31 132.449 883.906 132.057 884.596 132.054C885.285 132.051 885.884 132.44 886.184 133.011C886.479 132.438 887.076 132.045 887.765 132.042C888.454 132.04 889.053 132.428 889.353 132.999C889.648 132.426 890.245 132.033 890.934 132.03C891.623 132.028 892.222 132.416 892.522 132.987C892.817 132.414 893.414 132.021 894.103 132.018C894.792 132.016 895.392 132.404 895.691 132.975Z" fill="#A7D5FF"/>
<path d="M1045.15 182.367C1046.1 180.527 1048.01 179.265 1050.23 179.257C1053.39 179.245 1055.96 181.801 1055.98 184.966C1055.98 187.179 1054.74 189.103 1052.9 190.065C1054.74 191.013 1056.01 192.928 1056.01 195.141C1056.02 197.353 1054.78 199.278 1052.94 200.239C1054.78 201.187 1056.04 203.102 1056.05 205.315C1056.06 207.528 1054.81 209.453 1052.98 210.414C1054.82 211.362 1056.08 213.277 1056.09 215.49C1056.1 217.703 1054.85 219.627 1053.02 220.589C1054.86 221.537 1056.12 223.452 1056.13 225.665C1056.14 227.878 1054.89 229.802 1053.06 230.764C1054.9 231.712 1056.16 233.627 1056.17 235.84C1056.17 238.053 1054.93 239.977 1053.09 240.939C1054.93 241.886 1056.2 243.802 1056.2 246.014C1056.21 248.227 1054.97 250.152 1053.13 251.113C1054.97 252.061 1056.23 253.976 1056.24 256.189C1056.25 258.402 1055 260.327 1053.17 261.288C1055.01 262.236 1056.27 264.151 1056.28 266.364C1056.29 268.577 1055.04 270.501 1053.21 271.463C1055.05 272.411 1056.31 274.326 1056.32 276.539C1056.33 279.704 1053.77 282.279 1050.61 282.29C1048.4 282.299 1046.47 281.051 1045.51 279.219C1044.56 281.059 1042.65 282.32 1040.44 282.328C1038.22 282.337 1036.3 281.09 1035.34 279.257C1034.39 281.097 1032.47 282.358 1030.26 282.366C1028.05 282.375 1026.12 281.128 1025.16 279.295C1024.21 281.135 1022.3 282.396 1020.09 282.404C1017.87 282.413 1015.95 281.165 1014.99 279.333C1014.04 281.173 1012.12 282.434 1009.91 282.442C1007.7 282.451 1005.77 281.203 1004.81 279.371C1003.86 281.211 1001.95 282.472 999.736 282.48C997.523 282.489 995.599 281.241 994.637 279.409C993.689 281.249 991.774 282.51 989.561 282.518C987.348 282.527 985.424 281.279 984.462 279.447C983.514 281.287 981.599 282.548 979.386 282.556C977.173 282.565 975.249 281.317 974.287 279.485C973.34 281.325 971.424 282.586 969.211 282.594C966.999 282.603 965.074 281.355 964.113 279.523C963.165 281.363 961.25 282.624 959.037 282.632C955.872 282.644 953.297 280.088 953.285 276.924C953.277 274.711 954.524 272.786 956.357 271.825C954.517 270.877 953.255 268.962 953.247 266.749C953.239 264.536 954.486 262.611 956.319 261.65C954.479 260.702 953.217 258.787 953.209 256.574C953.201 254.361 954.448 252.437 956.281 251.475C954.441 250.527 953.179 248.612 953.171 246.399C953.163 244.186 954.41 242.262 956.243 241.3C954.403 240.352 953.141 238.437 953.133 236.224C953.125 234.012 954.372 232.087 956.205 231.126C954.365 230.178 953.103 228.262 953.095 226.05C953.087 223.837 954.334 221.912 956.167 220.951C954.327 220.003 953.065 218.088 953.057 215.875C953.049 213.662 954.296 211.737 956.129 210.776C954.289 209.828 953.027 207.913 953.019 205.7C953.011 203.487 954.258 201.563 956.091 200.601C954.251 199.653 952.989 197.738 952.981 195.525C952.973 193.312 954.22 191.388 956.053 190.426C954.213 189.479 952.952 187.563 952.943 185.35C952.931 182.186 955.487 179.611 958.652 179.599C960.865 179.591 962.789 180.838 963.751 182.671C964.699 180.831 966.614 179.569 968.827 179.561C971.04 179.553 972.964 180.8 973.926 182.633C974.873 180.793 976.789 179.531 979.002 179.523C981.214 179.515 983.139 180.762 984.1 182.595C985.048 180.755 986.964 179.493 989.176 179.485C991.389 179.477 993.314 180.724 994.275 182.557C995.223 180.717 997.138 179.455 999.351 179.447C1001.56 179.439 1003.49 180.686 1004.45 182.519C1005.4 180.679 1007.31 179.417 1009.53 179.409C1011.74 179.401 1013.66 180.648 1014.62 182.481C1015.57 180.641 1017.49 179.379 1019.7 179.371C1021.91 179.363 1023.84 180.61 1024.8 182.443C1025.75 180.603 1027.66 179.341 1029.88 179.333C1032.09 179.325 1034.01 180.572 1034.97 182.405C1035.92 180.565 1037.84 179.303 1040.05 179.295C1042.26 179.287 1044.19 180.534 1045.15 182.367Z" fill="#A7D5FF"/>
<path d="M938.987 228.043L907.101 228L906.966 327.967L1006.93 328.102L1006.97 297.078L938.894 296.986L938.987 228.043Z" fill="#A7D5FF" fill-opacity="0.5"/>
<path d="M935.691 190.975C935.986 190.402 936.583 190.009 937.272 190.007C938.258 190.003 939.06 190.799 939.063 191.785C939.066 192.474 938.677 193.073 938.107 193.373C938.68 193.668 939.073 194.265 939.075 194.954C939.078 195.643 938.689 196.242 938.118 196.542C938.692 196.837 939.084 197.434 939.087 198.123C939.09 198.812 938.701 199.412 938.13 199.711C938.703 200.006 939.096 200.603 939.099 201.292C939.101 201.981 938.713 202.581 938.142 202.88C938.715 203.175 939.108 203.772 939.111 204.461C939.113 205.15 938.725 205.75 938.154 206.049C938.727 206.344 939.12 206.941 939.123 207.63C939.125 208.319 938.737 208.919 938.166 209.218C938.739 209.513 939.132 210.11 939.134 210.799C939.137 211.488 938.748 212.088 938.178 212.387C938.751 212.682 939.144 213.279 939.146 213.968C939.149 214.657 938.76 215.257 938.189 215.556C938.763 215.852 939.155 216.448 939.158 217.137C939.161 217.826 938.772 218.426 938.201 218.725C938.774 219.021 939.167 219.617 939.17 220.306C939.174 221.292 938.377 222.094 937.392 222.098C936.703 222.1 936.103 221.712 935.804 221.141C935.508 221.714 934.912 222.107 934.223 222.11C933.534 222.112 932.934 221.724 932.635 221.153C932.339 221.726 931.743 222.119 931.054 222.121C930.364 222.124 929.765 221.736 929.466 221.165C929.17 221.738 928.574 222.131 927.885 222.133C927.195 222.136 926.596 221.747 926.296 221.177C926.001 221.75 925.405 222.143 924.716 222.145C924.026 222.148 923.427 221.759 923.127 221.188C922.832 221.761 922.236 222.154 921.546 222.157C920.857 222.159 920.258 221.771 919.958 221.2C919.663 221.773 919.067 222.166 918.377 222.169C917.688 222.171 917.089 221.783 916.789 221.212C916.494 221.785 915.898 222.178 915.208 222.181C914.519 222.183 913.92 221.795 913.62 221.224C913.325 221.797 912.728 222.19 912.039 222.192C911.35 222.195 910.751 221.807 910.451 221.236C910.156 221.809 909.559 222.202 908.87 222.204C907.885 222.208 907.082 221.412 907.079 220.426C907.076 219.737 907.465 219.138 908.036 218.838C907.462 218.543 907.07 217.946 907.067 217.257C907.064 216.568 907.453 215.968 908.024 215.669C907.451 215.374 907.058 214.777 907.055 214.088C907.053 213.399 907.441 212.799 908.012 212.5C907.439 212.205 907.046 211.608 907.043 210.919C907.041 210.23 907.429 209.63 908 209.331C907.427 209.036 907.034 208.439 907.031 207.75C907.029 207.061 907.417 206.461 907.988 206.162C907.415 205.867 907.022 205.27 907.02 204.581C907.017 203.892 907.406 203.292 907.976 202.993C907.403 202.697 907.01 202.101 907.008 201.412C907.005 200.723 907.394 200.123 907.965 199.824C907.391 199.528 906.999 198.932 906.996 198.243C906.993 197.553 907.382 196.954 907.953 196.655C907.38 196.359 906.987 195.763 906.984 195.074C906.982 194.384 907.37 193.785 907.941 193.486C907.368 193.19 906.975 192.594 906.972 191.905C906.969 190.919 907.765 190.117 908.75 190.113C909.44 190.111 910.039 190.499 910.339 191.07C910.634 190.497 911.23 190.104 911.919 190.101C912.609 190.099 913.208 190.487 913.508 191.058C913.803 190.485 914.399 190.092 915.089 190.09C915.778 190.087 916.377 190.475 916.677 191.046C916.972 190.473 917.568 190.08 918.258 190.078C918.947 190.075 919.546 190.464 919.846 191.034C920.141 190.461 920.737 190.068 921.427 190.066C922.116 190.063 922.715 190.452 923.015 191.023C923.31 190.449 923.906 190.057 924.596 190.054C925.285 190.051 925.884 190.44 926.184 191.011C926.479 190.438 927.076 190.045 927.765 190.042C928.454 190.04 929.053 190.428 929.353 190.999C929.648 190.426 930.245 190.033 930.934 190.03C931.623 190.028 932.222 190.416 932.522 190.987C932.817 190.414 933.414 190.021 934.103 190.018C934.792 190.016 935.392 190.404 935.691 190.975Z" fill="#A7D5FF"/>
<path d="M1123.97 297V328H1017.97V297H1123.97Z" fill="#A7D5FF" fill-opacity="0.25"/>
<path d="M1171.97 214V245H1065.97V214H1171.97Z" fill="#A7D5FF" fill-opacity="0.25"/>
<path d="M1137.42 351.085L1169.31 350.966L1168.93 251L1068.97 251.373L1069.08 282.397L1137.16 282.143L1137.42 351.085Z" fill="#A7D5FF" fill-opacity="0.5"/>
<path d="M1092.42 447.085L1124.31 446.966L1123.93 347L1023.97 347.373L1024.08 378.397L1092.16 378.143L1092.42 447.085Z" fill="#A7D5FF" fill-opacity="0.5"/>
<path d="M1166.04 363.951C1166.34 363.37 1166.94 362.972 1167.64 362.97C1168.64 362.966 1169.45 363.772 1169.45 364.771C1169.46 365.469 1169.06 366.076 1168.49 366.379C1169.07 366.678 1169.46 367.282 1169.47 367.98C1169.47 368.678 1169.08 369.285 1168.5 369.589C1169.08 369.887 1169.48 370.492 1169.48 371.19C1169.48 371.888 1169.09 372.495 1168.51 372.798C1169.09 373.097 1169.49 373.701 1169.49 374.399C1169.49 375.097 1169.1 375.704 1168.52 376.007C1169.1 376.306 1169.5 376.911 1169.5 377.609C1169.5 378.307 1169.11 378.914 1168.53 379.217C1169.11 379.516 1169.51 380.12 1169.51 380.818C1169.52 381.516 1169.12 382.123 1168.55 382.426C1169.13 382.725 1169.52 383.33 1169.53 384.028C1169.53 384.726 1169.14 385.333 1168.56 385.636C1169.14 385.935 1169.54 386.539 1169.54 387.237C1169.54 387.935 1169.15 388.542 1168.57 388.845C1169.15 389.144 1169.55 389.749 1169.55 390.447C1169.55 391.145 1169.16 391.752 1168.58 392.055C1169.16 392.354 1169.56 392.958 1169.56 393.656C1169.57 394.654 1168.76 395.467 1167.76 395.47C1167.06 395.473 1166.46 395.079 1166.15 394.501C1165.85 395.082 1165.25 395.48 1164.55 395.482C1163.85 395.485 1163.25 395.091 1162.94 394.513C1162.64 395.094 1162.04 395.492 1161.34 395.494C1160.64 395.497 1160.04 395.103 1159.73 394.525C1159.44 395.106 1158.83 395.504 1158.13 395.506C1157.44 395.509 1156.83 395.115 1156.52 394.537C1156.23 395.118 1155.62 395.516 1154.92 395.518C1154.23 395.521 1153.62 395.127 1153.32 394.549C1153.02 395.13 1152.41 395.528 1151.71 395.53C1151.02 395.533 1150.41 395.139 1150.11 394.561C1149.81 395.142 1149.2 395.54 1148.5 395.542C1147.81 395.545 1147.2 395.151 1146.9 394.573C1146.6 395.154 1145.99 395.552 1145.3 395.554C1144.6 395.557 1143.99 395.163 1143.69 394.585C1143.39 395.166 1142.78 395.564 1142.09 395.566C1141.39 395.569 1140.78 395.175 1140.48 394.597C1140.18 395.178 1139.57 395.576 1138.88 395.578C1137.88 395.582 1137.07 394.776 1137.06 393.777C1137.06 393.079 1137.45 392.472 1138.03 392.169C1137.45 391.87 1137.05 391.266 1137.05 390.568C1137.05 389.87 1137.44 389.263 1138.02 388.96C1137.44 388.661 1137.04 388.056 1137.04 387.358C1137.04 386.66 1137.43 386.053 1138.01 385.75C1137.43 385.451 1137.03 384.847 1137.03 384.149C1137.02 383.451 1137.42 382.844 1137.99 382.541C1137.41 382.242 1137.02 381.637 1137.01 380.939C1137.01 380.241 1137.4 379.634 1137.98 379.331C1137.4 379.032 1137 378.428 1137 377.73C1137 377.032 1137.39 376.425 1137.97 376.122C1137.39 375.823 1136.99 375.218 1136.99 374.52C1136.99 373.822 1137.38 373.215 1137.96 372.912C1137.38 372.613 1136.98 372.009 1136.98 371.311C1136.98 370.613 1137.37 370.006 1137.95 369.703C1137.37 369.404 1136.97 368.799 1136.97 368.101C1136.96 367.403 1137.36 366.796 1137.93 366.493C1137.35 366.194 1136.96 365.59 1136.95 364.892C1136.95 363.894 1137.76 363.081 1138.75 363.078C1139.45 363.075 1140.06 363.469 1140.36 364.047C1140.66 363.466 1141.27 363.068 1141.96 363.066C1142.66 363.063 1143.27 363.457 1143.57 364.035C1143.87 363.454 1144.48 363.056 1145.17 363.054C1145.87 363.051 1146.48 363.445 1146.78 364.023C1147.08 363.442 1147.69 363.044 1148.38 363.042C1149.08 363.039 1149.69 363.433 1149.99 364.011C1150.29 363.43 1150.89 363.032 1151.59 363.03C1152.29 363.027 1152.9 363.421 1153.2 363.999C1153.5 363.418 1154.1 363.02 1154.8 363.018C1155.5 363.015 1156.11 363.409 1156.41 363.987C1156.71 363.406 1157.31 363.008 1158.01 363.006C1158.71 363.003 1159.32 363.397 1159.62 363.975C1159.92 363.394 1160.52 362.996 1161.22 362.994C1161.92 362.991 1162.53 363.385 1162.83 363.963C1163.13 363.382 1163.73 362.984 1164.43 362.982C1165.13 362.979 1165.74 363.373 1166.04 363.951Z" fill="#A7D5FF"/>
<path d="M1077.76 387.487C1078.21 386.613 1079.12 386.014 1080.17 386.01C1081.68 386.005 1082.9 387.218 1082.9 388.721C1082.91 389.772 1082.32 390.686 1081.45 391.142C1082.32 391.593 1082.92 392.502 1082.92 393.553C1082.93 394.604 1082.33 395.518 1081.46 395.974C1082.34 396.424 1082.94 397.334 1082.94 398.385C1082.94 399.436 1082.35 400.349 1081.48 400.806C1082.36 401.256 1082.95 402.166 1082.96 403.217C1082.96 404.267 1082.37 405.181 1081.5 405.638C1082.37 406.088 1082.97 406.997 1082.98 408.048C1082.98 409.099 1082.39 410.013 1081.52 410.47C1082.39 410.92 1082.99 411.829 1082.99 412.88C1083 413.931 1082.41 414.845 1081.54 415.301C1082.41 415.752 1083.01 416.661 1083.01 417.712C1083.02 418.763 1082.42 419.677 1081.55 420.133C1082.43 420.583 1083.03 421.493 1083.03 422.544C1083.03 423.595 1082.44 424.508 1081.57 424.965C1082.45 425.415 1083.04 426.325 1083.05 427.376C1083.05 428.426 1082.46 429.34 1081.59 429.797C1082.46 430.247 1083.06 431.156 1083.07 432.207C1083.07 433.71 1081.86 434.933 1080.36 434.939C1079.3 434.943 1078.39 434.35 1077.93 433.48C1077.48 434.354 1076.57 434.953 1075.52 434.957C1074.47 434.961 1073.56 434.368 1073.1 433.498C1072.65 434.372 1071.74 434.971 1070.69 434.975C1069.64 434.979 1068.73 434.386 1068.27 433.516C1067.82 434.39 1066.91 434.989 1065.86 434.993C1064.81 434.997 1063.9 434.404 1063.44 433.534C1062.99 434.408 1062.08 435.007 1061.03 435.011C1059.98 435.015 1059.06 434.422 1058.61 433.552C1058.16 434.426 1057.25 435.025 1056.2 435.029C1055.15 435.033 1054.23 434.44 1053.78 433.57C1053.33 434.444 1052.42 435.043 1051.36 435.047C1050.31 435.051 1049.4 434.459 1048.94 433.588C1048.49 434.462 1047.58 435.061 1046.53 435.065C1045.48 435.069 1044.57 434.477 1044.11 433.606C1043.66 434.48 1042.75 435.079 1041.7 435.083C1040.65 435.087 1039.74 434.495 1039.28 433.624C1038.83 434.498 1037.92 435.097 1036.87 435.101C1035.37 435.107 1034.14 433.893 1034.14 432.39C1034.13 431.339 1034.73 430.425 1035.6 429.969C1034.72 429.519 1034.12 428.609 1034.12 427.558C1034.12 426.507 1034.71 425.593 1035.58 425.137C1034.71 424.687 1034.11 423.777 1034.1 422.726C1034.1 421.676 1034.69 420.762 1035.56 420.305C1034.69 419.855 1034.09 418.945 1034.08 417.895C1034.08 416.844 1034.67 415.93 1035.54 415.473C1034.67 415.023 1034.07 414.114 1034.07 413.063C1034.06 412.012 1034.65 411.098 1035.52 410.641C1034.65 410.191 1034.05 409.282 1034.05 408.231C1034.04 407.18 1034.64 406.266 1035.51 405.81C1034.63 405.36 1034.03 404.45 1034.03 403.399C1034.03 402.348 1034.62 401.434 1035.49 400.978C1034.61 400.528 1034.02 399.618 1034.01 398.567C1034.01 397.517 1034.6 396.603 1035.47 396.146C1034.6 395.696 1034 394.786 1033.99 393.736C1033.99 392.685 1034.58 391.771 1035.45 391.314C1034.58 390.864 1033.98 389.955 1033.98 388.904C1033.97 387.401 1035.18 386.178 1036.69 386.173C1037.74 386.169 1038.65 386.761 1039.11 387.631C1039.56 386.757 1040.47 386.158 1041.52 386.155C1042.57 386.151 1043.48 386.743 1043.94 387.613C1044.39 386.739 1045.3 386.14 1046.35 386.136C1047.4 386.133 1048.32 386.725 1048.77 387.595C1049.22 386.721 1050.13 386.122 1051.18 386.118C1052.23 386.114 1053.15 386.707 1053.6 387.577C1054.05 386.703 1054.96 386.104 1056.01 386.1C1057.06 386.096 1057.98 386.689 1058.44 387.559C1058.89 386.685 1059.79 386.086 1060.85 386.082C1061.9 386.078 1062.81 386.671 1063.27 387.541C1063.72 386.667 1064.63 386.068 1065.68 386.064C1066.73 386.06 1067.64 386.653 1068.1 387.523C1068.55 386.649 1069.46 386.05 1070.51 386.046C1071.56 386.042 1072.47 386.635 1072.93 387.505C1073.38 386.631 1074.29 386.032 1075.34 386.028C1076.39 386.024 1077.31 386.617 1077.76 387.487Z" fill="#A7D5FF"/>
</svg>
